<svg width="40" height="40" viewBox="0 0 40 40" fill="none" xmlns="http://www.w3.org/2000/svg">
<g id="devicon:react" clip-path="url(#clip0_5_32)">
<g id="Group">
<path id="Vector" d="M20.4292 23.0567C22.3545 23.0567 23.9152 21.496 23.9152 19.5707C23.9152 17.6454 22.3545 16.0847 20.4292 16.0847C18.5039 16.0847 16.9432 17.6454 16.9432 19.5707C16.9432 21.496 18.5039 23.0567 20.4292 23.0567Z" fill="#61DAFB"/>
<path id="Vector_2" d="M33.6701 13.8219C32.9973 13.5772 32.294 13.3326 31.5601 13.1185C31.7436 12.3846 31.8965 11.6507 32.0188 10.9474C32.661 6.91095 31.9576 4.06708 30.0006 2.96623C29.4195 2.62986 28.7774 2.47696 28.0435 2.47696C25.9029 2.47696 23.1814 4.06708 20.4292 6.72748C17.6771 4.06708 14.9556 2.47696 12.815 2.47696C12.0811 2.47696 11.4389 2.62986 10.8579 2.96623C8.90087 4.09766 8.19755 6.94153 8.83971 10.9474C8.96203 11.6507 9.11493 12.3846 9.2984 13.1185C8.5645 13.3326 7.86118 13.5466 7.18843 13.8219C3.36603 15.2897 1.28664 17.3079 1.28664 19.5708C1.28664 21.8336 3.39661 23.8519 7.18843 25.3197C7.86118 25.5643 8.5645 25.8089 9.2984 26.023C9.11493 26.7569 8.96203 27.4908 8.83971 28.1941C8.19755 32.2306 8.90087 35.0744 10.8579 36.1753C11.4389 36.5117 12.0811 36.6646 12.815 36.6646C14.9861 36.6646 17.7077 35.0744 20.4292 32.414C23.1814 35.0744 25.9029 36.6646 28.0435 36.6646C28.7774 36.6646 29.4195 36.5117 30.0006 36.1753C31.9576 35.0439 32.661 32.2 32.0188 28.1941C31.8965 27.4908 31.7436 26.7569 31.5601 26.023C32.294 25.8089 32.9973 25.5949 33.6701 25.3197C37.4925 23.8519 39.5719 21.8336 39.5719 19.5708C39.5719 17.3079 37.4925 15.2897 33.6701 13.8219ZM29.1443 4.49519C30.3981 5.22909 30.8262 7.49196 30.3063 10.7028C30.2146 11.3449 30.0617 12.0177 29.8782 12.721C28.2881 12.3541 26.6063 12.1094 24.8327 11.9565C23.793 10.4887 22.7227 9.17382 21.6524 7.98123C23.9153 5.74894 26.2087 4.21998 28.0741 4.21998C28.4716 4.21998 28.8385 4.31171 29.1443 4.49519ZM25.7195 22.6287C25.169 23.6072 24.5269 24.5858 23.8541 25.5643C22.7227 25.656 21.5913 25.6866 20.4292 25.6866C19.2367 25.6866 18.1052 25.656 17.0044 25.5643C16.3316 24.5858 15.72 23.6072 15.1696 22.6287C14.5886 21.6196 14.0382 20.5799 13.5489 19.5708C14.0382 18.5616 14.5886 17.522 15.1696 16.5128C15.72 15.5343 16.3622 14.5558 17.035 13.5772C18.1664 13.4855 19.2978 13.4549 20.4598 13.4549C21.6524 13.4549 22.7839 13.4855 23.8847 13.5772C24.5574 14.5558 25.169 15.5343 25.7195 16.5128C26.3005 17.522 26.8509 18.5616 27.3402 19.5708C26.8203 20.5799 26.3005 21.589 25.7195 22.6287ZM28.2575 21.6196C28.7162 22.6898 29.0832 23.7295 29.4195 24.7692C28.3799 25.0139 27.279 25.1973 26.117 25.3502C26.4839 24.7692 26.8815 24.1577 27.2178 23.5155C27.5848 22.8733 27.9212 22.2312 28.2575 21.6196ZM20.4292 29.9066C19.6953 29.1115 18.992 28.2553 18.3193 27.3685C19.0226 27.3991 19.7259 27.4296 20.4292 27.4296C21.1326 27.4296 21.8359 27.3991 22.5392 27.3685C21.8665 28.2553 21.1632 29.1115 20.4292 29.9066ZM14.7415 25.3197C13.5795 25.1668 12.4786 24.9833 11.4389 24.7387C11.7753 23.7295 12.1423 22.6593 12.601 21.589C12.9373 22.2006 13.2737 22.8427 13.6407 23.4543C14.0076 24.1271 14.3746 24.7081 14.7415 25.3197ZM12.601 17.522C12.1423 16.4517 11.7753 15.412 11.4389 14.3723C12.4786 14.1277 13.5795 13.9442 14.7415 13.7913C14.3746 14.3723 13.977 14.9839 13.6407 15.626C13.2737 16.2682 12.9373 16.9104 12.601 17.522ZM20.4292 9.23497C21.1632 10.03 21.8665 10.8863 22.5392 11.7731C21.8359 11.7425 21.1326 11.7119 20.4292 11.7119C19.7259 11.7119 19.0226 11.7425 18.3193 11.7731C18.992 10.8863 19.6953 10.03 20.4292 9.23497ZM27.2178 15.6566L26.117 13.8219C27.279 13.9748 28.3799 14.1582 29.4195 14.4029C29.0832 15.412 28.7162 16.4823 28.2575 17.5525C27.9212 16.9104 27.5848 16.2682 27.2178 15.6566ZM10.5522 10.7028C10.0323 7.49196 10.4604 5.22909 11.7142 4.49519C12.02 4.31171 12.3869 4.21998 12.7844 4.21998C14.6192 4.21998 16.9126 5.71836 19.2061 7.98123C18.1358 9.14324 17.0655 10.4887 16.0258 11.9565C14.2522 12.1094 12.5704 12.3846 10.9803 12.721C10.7968 12.0177 10.6745 11.3449 10.5522 10.7028ZM2.99907 19.5708C2.99907 18.1335 4.74209 16.6046 7.80002 15.4731C8.4116 15.2285 9.08435 15.0145 9.75709 14.831C10.2464 16.3599 10.8579 17.9806 11.5918 19.6013C10.8579 21.222 10.2158 22.8122 9.75709 24.3411C5.53715 23.118 2.99907 21.2832 2.99907 19.5708ZM11.7142 34.6463C10.4604 33.9124 10.0323 31.6496 10.5522 28.4387C10.6439 27.7966 10.7968 27.1238 10.9803 26.4205C12.5704 26.7875 14.2522 27.0321 16.0258 27.185C17.0655 28.6528 18.1358 29.9677 19.2061 31.1603C16.9432 33.3926 14.6498 34.9215 12.7844 34.9215C12.3869 34.9215 12.02 34.8298 11.7142 34.6463ZM30.3063 28.4387C30.8262 31.6496 30.3981 33.9124 29.1443 34.6463C28.8385 34.8298 28.4716 34.9215 28.0741 34.9215C26.2393 34.9215 23.9459 33.4232 21.6524 31.1603C22.7227 29.9983 23.793 28.6528 24.8327 27.185C26.6063 27.0321 28.2881 26.7569 29.8782 26.4205C30.0617 27.1238 30.184 27.7966 30.3063 28.4387ZM33.0585 23.6684C32.4469 23.913 31.7742 24.1271 31.1014 24.3105C30.6121 22.7816 30.0006 21.1609 29.2667 19.5402C30.0006 17.9195 30.6427 16.3294 31.1014 14.8004C35.3213 16.0236 37.8594 17.8583 37.8594 19.5708C37.8594 21.008 36.0858 22.537 33.0585 23.6684Z" fill="#61DAFB"/>
</g>
</g>
<defs>
<clipPath id="clip0_5_32">
<rect width="39.1414" height="39.1414" fill="white" transform="translate(0.858521)"/>
</clipPath>
</defs>
</svg>
