<svg width="38" height="39" viewBox="0 0 38 39" fill="none" xmlns="http://www.w3.org/2000/svg">
<g id="devicon:git">
<path id="Vector" d="M35.9766 18.0112L20.7309 2.76599C19.8534 1.88802 18.4294 1.88802 17.5506 2.76599L14.3851 5.93209L18.4009 9.94795C19.3345 9.63289 20.4044 9.84422 21.1483 10.588C21.8959 11.3365 22.1056 12.4156 21.7828 13.3522L25.6532 17.2228C26.5895 16.9 27.6702 17.1086 28.4176 17.8577C29.4632 18.9024 29.4632 20.5961 28.4176 21.6415C28.1692 21.89 27.8741 22.0873 27.5494 22.2218C27.2247 22.3563 26.8767 22.4256 26.5252 22.4256C26.1737 22.4256 25.8257 22.3563 25.501 22.2218C25.1762 22.0873 24.8812 21.89 24.6327 21.6415C24.2594 21.2679 24.0049 20.7923 23.9013 20.2744C23.7977 19.7566 23.8496 19.2196 24.0505 18.7312L20.4412 15.122L20.4407 24.6211C20.7025 24.7501 20.9416 24.9209 21.1485 25.1268C22.1936 26.1715 22.1936 27.8647 21.1485 28.9117C20.1032 29.9564 18.409 29.9564 17.3648 28.9117C16.3197 27.865 16.3197 26.1718 17.3648 25.1268C17.6151 24.876 17.9129 24.6776 18.2408 24.5431V14.956C17.9127 14.8219 17.6148 14.6234 17.3648 14.3721C16.5731 13.581 16.3825 12.4192 16.7886 11.4466L12.8294 7.48748L2.3757 17.9407C1.95395 18.3625 1.71703 18.9346 1.71703 19.5312C1.71703 20.1277 1.95395 20.6998 2.3757 21.1217L17.6217 36.3669C18.4997 37.2449 19.9231 37.2449 20.8025 36.3669L35.9769 21.1925C36.3985 20.7705 36.6354 20.1984 36.6353 19.6018C36.6353 19.0052 36.3983 18.4331 35.9766 18.0112Z" fill="#F34F29"/>
</g>
</svg>
