<svg width="42" height="42" viewBox="0 0 42 42" fill="none" xmlns="http://www.w3.org/2000/svg">
<g id="devicon:mongodb-wordmark">
<path id="Vector" fill-rule="evenodd" clip-rule="evenodd" d="M28.9457 32.0864C28.9999 31.9822 29.0518 31.8903 29.096 31.7951C29.1239 31.7342 29.1668 31.722 29.2274 31.7236C29.5904 31.7339 29.9535 31.7451 30.3168 31.7486C30.6254 31.7518 30.9346 31.7461 31.2435 31.7425C31.5914 31.7384 31.9394 31.7201 32.2871 31.7301C32.7501 31.7435 33.2012 31.8342 33.62 32.0402C34.1202 32.2866 34.4986 32.6618 34.7565 33.1562C34.9187 33.4697 35.0199 33.8111 35.0549 34.1624C35.11 34.6776 35.0738 35.181 34.9103 35.6738C34.7078 36.2845 34.3233 36.752 33.7892 37.1022C33.3781 37.3717 32.9273 37.5309 32.4441 37.6219C31.9327 37.7184 31.4197 37.6873 30.9067 37.6889C30.344 37.6911 29.7817 37.679 29.2191 37.6725C29.1207 37.6716 29.1066 37.653 29.1325 37.5591L29.1566 37.4726C29.2114 37.3002 29.2408 37.2925 29.4158 37.2637C29.5398 37.2442 29.6584 37.1991 29.7641 37.1314C29.823 37.0923 29.8474 36.9904 29.8705 36.9119C29.8903 36.8433 29.8913 36.768 29.8919 36.6956C29.8999 35.5982 29.9083 34.501 29.9128 33.4042C29.914 33.1268 29.907 32.8494 29.8919 32.5724C29.881 32.3786 29.7775 32.2459 29.5468 32.2001C29.3674 32.1645 29.1867 32.137 29.0063 32.1053L28.9457 32.0864ZM34.0968 34.7436C34.0724 34.5251 34.0606 34.3046 34.0215 34.0893C33.9279 33.5725 33.7017 33.1223 33.3044 32.7695C32.662 32.1995 31.8885 32.1117 31.0778 32.1796C30.8932 32.195 30.8535 32.2581 30.8506 32.4478C30.8461 32.7169 30.8417 32.9861 30.8413 33.2552C30.8401 34.1088 30.8401 34.9624 30.8413 35.816C30.8417 36.0589 30.8442 36.3018 30.8513 36.544C30.859 36.792 30.949 37.0019 31.1919 37.098C31.5748 37.2496 31.9775 37.2675 32.3794 37.2057C33.0212 37.1073 33.4701 36.7334 33.7713 36.173C34.0096 35.7282 34.0769 35.2428 34.0968 34.7436ZM35.6569 37.6501C35.6492 37.5171 35.7037 37.4072 35.771 37.3063C35.7893 37.2791 35.8521 37.2804 35.8953 37.2717L36.2625 37.199C36.3923 37.1714 36.4605 37.0843 36.4788 36.957C36.491 36.8731 36.5025 36.7882 36.5035 36.7033C36.5122 36.0314 36.5185 35.3595 36.5224 34.6875C36.5256 34.0146 36.523 33.3418 36.523 32.6689L36.5201 32.5404C36.507 32.3241 36.4025 32.212 36.1879 32.1802L35.7223 32.1094C35.6649 32.1017 35.6441 32.0742 35.6649 32.0232C35.7008 31.9364 35.7351 31.8464 35.7857 31.7682C35.8046 31.7393 35.8684 31.7281 35.9113 31.7291C36.1337 31.7323 36.3561 31.749 36.5784 31.7486L38.5141 31.7371C38.8871 31.7368 39.2472 31.8018 39.5817 31.9803C39.9499 32.1764 40.1559 32.4798 40.2149 32.8932C40.2764 33.3273 40.1447 33.6933 39.8275 33.9839C39.6971 34.1037 39.5282 34.1819 39.377 34.2793L39.3276 34.3101C39.468 34.3617 39.6016 34.4062 39.7317 34.4594C40.1123 34.6154 40.4151 34.8593 40.5754 35.2486C40.7019 35.5559 40.7019 35.8763 40.6269 36.1948C40.5103 36.6933 40.1819 37.025 39.7548 37.2759C39.3539 37.5114 38.9201 37.6485 38.458 37.6716C38.0319 37.6931 37.6038 37.685 37.1767 37.6898L36.9293 37.6911C36.5177 37.6817 36.106 37.6714 35.6944 37.6604L35.6569 37.6501ZM37.4311 35.6991H37.4352C37.4352 35.9099 37.4324 36.1208 37.4362 36.3316C37.4388 36.4681 37.434 36.6084 37.4634 36.7398C37.5077 36.9362 37.5974 37.1134 37.8178 37.1698C38.1125 37.2473 38.4204 37.2608 38.7208 37.2095C39.0979 37.1439 39.3988 36.9548 39.5638 36.5956C39.6862 36.3287 39.7045 36.0458 39.6625 35.7568C39.6067 35.3761 39.4045 35.0999 39.0684 34.9189C38.848 34.8 38.6128 34.7273 38.3622 34.7176C38.0815 34.7071 37.8005 34.7064 37.5198 34.6978C37.441 34.6955 37.4301 34.7356 37.4304 34.8003C37.432 35.0996 37.4311 35.3992 37.4311 35.6991ZM38.0287 34.2652C38.1821 34.2575 38.3558 34.2553 38.5285 34.238C38.8592 34.205 39.0921 34.0387 39.2136 33.7224C39.2754 33.5619 39.2729 33.3966 39.2745 33.2296C39.2793 32.7948 39.0255 32.4385 38.6125 32.2911C38.2937 32.1774 37.9649 32.1754 37.6342 32.1844C37.5003 32.1879 37.4404 32.2466 37.4385 32.3815L37.4186 34.1402C37.4176 34.2101 37.4477 34.2402 37.5157 34.2425L38.0287 34.2652Z" fill="white"/>
<path id="Vector_2" fill-rule="evenodd" clip-rule="evenodd" d="M4.36451 37.3122L4.34112 37.6146C4.12323 37.6146 3.92233 37.613 3.72143 37.6153C3.34301 37.6191 2.9646 37.6252 2.58586 37.6307L2.54933 37.6329C2.49518 37.6265 2.39681 37.6265 2.39425 37.6105C2.37823 37.5204 2.38336 37.4259 2.38752 37.3327C2.38784 37.3221 2.42469 37.3086 2.44616 37.3035L2.74062 37.2378C2.92423 37.1901 2.98895 37.1109 2.9976 36.9213C3.00753 36.7075 3.01747 36.4935 3.01843 36.2798C3.02131 35.7537 3.01811 35.2282 3.02035 34.702C3.02067 34.579 2.97806 34.4874 2.86335 34.4374C2.72704 34.3769 2.58977 34.3185 2.45161 34.2624C2.38624 34.2361 2.30133 34.2217 2.30902 34.1339C2.31671 34.0445 2.39906 34.0211 2.4766 34.0035C2.79766 33.9301 3.11904 33.8587 3.43914 33.7805C3.54231 33.7552 3.641 33.7126 3.76436 33.6696C3.77077 33.7363 3.78263 33.7997 3.78135 33.8632L3.76244 34.1647C3.76212 34.1987 3.77974 34.2442 3.80506 34.2631C3.82044 34.2749 3.87203 34.2534 3.89766 34.2336C4.1713 34.0253 4.46096 33.8456 4.79131 33.7408C5.30302 33.5783 5.74231 33.7289 6.04991 34.1701C6.15822 34.3255 6.15854 34.3255 6.30881 34.2169C6.56675 34.0295 6.83654 33.8641 7.13838 33.7552C7.80101 33.5158 8.43768 33.8196 8.66806 34.487C8.75201 34.7293 8.78405 34.9795 8.78341 35.2352L8.77732 36.9328C8.777 37.0728 8.82346 37.1526 8.95676 37.1962C9.10639 37.2452 9.26148 37.2789 9.43002 37.3231L9.39093 37.615C9.19932 37.615 9.02309 37.6137 8.84685 37.6153C8.41621 37.6191 7.98557 37.6214 7.55524 37.6313C7.48027 37.6332 7.46072 37.6146 7.45688 37.5445C7.44438 37.3199 7.44246 37.3202 7.65393 37.2696L7.72507 37.2513C7.93174 37.1949 8.00063 37.1315 8.00223 36.9219C8.00704 36.3202 8.01953 35.7168 7.98909 35.1163C7.95737 34.4934 7.46296 34.1618 6.85929 34.3214C6.66446 34.3747 6.48096 34.4631 6.31779 34.5822C6.26171 34.6223 6.25114 34.6684 6.25562 34.7386C6.27261 35.0039 6.28318 35.2695 6.28542 35.5351C6.28927 36.0001 6.2835 36.465 6.28542 36.9302C6.28606 37.1186 6.35047 37.1907 6.53663 37.2343L6.81315 37.2981L6.86442 37.3096C6.86827 37.398 6.87179 37.4865 6.86762 37.5749C6.86506 37.6303 6.82212 37.6352 6.77406 37.6342C6.50523 37.6275 6.23608 37.6185 5.96725 37.6191C5.6401 37.6198 5.31327 37.6291 4.98644 37.6348H4.90954C4.90954 37.541 4.90506 37.4512 4.91275 37.3618C4.91435 37.3404 4.95216 37.3102 4.97811 37.3035L5.30045 37.2353C5.43727 37.2016 5.50264 37.1315 5.51033 36.9924C5.54686 36.3484 5.57313 35.704 5.51257 35.0603C5.49781 34.9331 5.46254 34.8092 5.40812 34.6934C5.2431 34.3287 4.87173 34.1765 4.44333 34.2861C4.23987 34.338 4.05627 34.4313 3.8826 34.5489C3.84473 34.5722 3.81362 34.605 3.79237 34.6441C3.77112 34.6832 3.76047 34.7271 3.76148 34.7716C3.76148 35.414 3.76372 36.0564 3.76565 36.6986L3.76917 36.9463C3.77302 37.119 3.84639 37.21 4.01782 37.2471C4.12804 37.2721 4.23955 37.2891 4.36451 37.3122Z" fill="white"/>
<path id="Vector_3" fill-rule="evenodd" clip-rule="evenodd" d="M23.7364 33.7352C23.7861 33.9768 23.7852 34.1941 23.6076 34.3588C23.4314 34.5225 23.2084 34.4674 22.9908 34.4309C23.011 34.5456 23.0334 34.643 23.0443 34.7417C23.1235 35.4751 22.8079 36.0195 22.1276 36.3306C21.8706 36.4479 21.598 36.4915 21.3195 36.5139C21.1811 36.5248 21.06 36.6305 21.0468 36.7443C21.0334 36.8596 21.1058 36.9782 21.2506 37.0128C21.4214 37.0535 21.5996 37.065 21.7748 37.0852C22.151 37.1282 22.5314 37.1477 22.903 37.215C23.4651 37.3162 23.7787 37.8068 23.6797 38.3714C23.5916 38.8738 23.3007 39.2394 22.895 39.5198C22.2116 39.9933 21.4618 40.1318 20.6633 39.8902C20.2067 39.7518 19.8847 39.4515 19.7735 38.9658C19.7177 38.7226 19.777 38.5024 19.96 38.3374C20.1776 38.142 20.4143 37.9677 20.6422 37.7831L20.7159 37.7091L20.6313 37.6498C20.399 37.5396 20.2131 37.3887 20.141 37.1266C20.1164 37.0378 20.142 36.9795 20.2173 36.934C20.3455 36.8568 20.473 36.7783 20.5995 36.6985C20.6591 36.6613 20.7181 36.6229 20.7735 36.5799C20.8492 36.5222 20.8424 36.4793 20.7521 36.446C20.5419 36.3684 20.3551 36.256 20.2102 36.083C19.9683 35.7943 19.8997 35.4504 19.9196 35.0874C19.9507 34.5203 20.2586 34.1467 20.7591 33.9063C21.3541 33.6208 21.9511 33.6029 22.5576 33.8631C22.7819 33.9592 23.0184 33.9797 23.259 33.9631C23.4388 33.9502 23.5958 33.8823 23.7364 33.7352ZM21.5438 37.7985C21.0972 37.7946 20.9571 37.8497 20.695 38.1167C20.4015 38.4159 20.4031 38.8309 20.696 39.1314C20.9184 39.3592 21.1958 39.4659 21.5044 39.498C21.8649 39.5351 22.2199 39.5201 22.5474 39.3397C22.8966 39.1465 23.0703 38.7876 22.9918 38.4262C22.9267 38.1279 22.7069 37.9914 22.4394 37.9129C22.135 37.8238 21.8203 37.8068 21.5438 37.7985ZM20.6665 34.9442C20.6829 35.0682 20.6896 35.1938 20.7171 35.3152C20.7886 35.6299 20.9254 35.9064 21.2385 36.0464C21.606 36.2114 22.0754 36.1406 22.2362 35.6248C22.3461 35.2814 22.3333 34.9106 22.2 34.5757C22.1435 34.4226 22.0419 34.2903 21.9085 34.1963C21.5893 33.9736 21.0135 33.9442 20.779 34.4363C20.7027 34.5962 20.6729 34.7663 20.6665 34.9442Z" fill="white"/>
<path id="Vector_4" fill-rule="evenodd" clip-rule="evenodd" d="M16.1581 33.656C16.17 33.7108 16.1937 33.7729 16.1943 33.8354C16.1953 33.9543 16.1825 34.0732 16.1758 34.1921V34.2952L16.2764 34.2183C16.5519 33.9915 16.848 33.7983 17.1928 33.6941C17.815 33.5067 18.4366 33.8473 18.6395 34.4811C18.7164 34.722 18.7468 34.9697 18.7497 35.2216C18.7561 35.781 18.7599 36.3405 18.7657 36.8999C18.7676 37.1008 18.7907 37.1367 18.9807 37.1947C19.0888 37.227 19.1991 37.2515 19.3107 37.2681C19.3719 37.2777 19.3982 37.3017 19.395 37.3616L19.3957 37.4168C19.3934 37.6484 19.3774 37.659 19.1528 37.6584C18.6151 37.6574 18.0778 37.6606 17.5401 37.6651C17.3799 37.6664 17.3796 37.6712 17.3636 37.5129L17.3603 37.4219C17.3703 37.2854 17.3735 37.2867 17.5077 37.2668C17.5981 37.2533 17.6878 37.2325 17.7759 37.2094C17.8666 37.1861 17.9102 37.1191 17.9224 37.0294C17.9285 36.9839 17.9365 36.9384 17.9361 36.8929C17.9285 36.2815 17.9384 35.6695 17.9051 35.0591C17.8781 34.5653 17.5013 34.2712 17.0056 34.3048C16.7667 34.3214 16.537 34.4038 16.3421 34.5429C16.2097 34.6355 16.1831 34.7691 16.1838 34.913C16.1863 35.4846 16.1918 36.0563 16.1979 36.6282C16.1991 36.7535 16.2027 36.8788 16.2145 37.0031C16.227 37.139 16.2748 37.1937 16.4081 37.2232C16.5356 37.2514 16.6657 37.2678 16.8019 37.2905L16.8134 37.3956C16.8179 37.6407 16.7922 37.659 16.5542 37.658C15.9982 37.6558 15.4423 37.6593 14.8867 37.6654C14.7992 37.6667 14.7621 37.6391 14.7643 37.5539L14.763 37.5174C14.7486 37.2966 14.755 37.2883 14.9639 37.2524L15.0626 37.2325C15.2888 37.1816 15.3468 37.1213 15.35 36.8916C15.3606 36.1639 15.3645 35.4366 15.3718 34.7089C15.3728 34.6044 15.3334 34.5234 15.236 34.4801C15.0993 34.4202 14.9618 34.3621 14.8236 34.3058C14.7473 34.2744 14.6602 34.2545 14.6573 34.1491C14.6554 34.0748 14.7348 34.0091 14.8435 33.987C15.0617 33.9428 15.2818 33.9059 15.4974 33.8518C15.7121 33.7983 15.9229 33.7265 16.1581 33.656Z" fill="white"/>
<path id="Vector_5" fill-rule="evenodd" clip-rule="evenodd" d="M28.1787 35.5569C28.1684 36.2365 27.9919 36.786 27.5112 37.1984C26.9025 37.7216 25.9527 37.8994 25.1764 37.5082C24.845 37.3413 24.6015 37.0853 24.4429 36.753C24.1997 36.2419 24.1388 35.7046 24.2657 35.1541C24.3913 34.6097 24.721 34.2153 25.2145 33.9599C25.722 33.6975 26.2565 33.5949 26.8201 33.7327C27.533 33.9067 28.0454 34.4879 28.1473 35.2281C28.1655 35.3579 28.1726 35.4892 28.1787 35.5569ZM27.353 35.925L27.3254 35.9218C27.3254 35.8577 27.3289 35.7936 27.3248 35.7296C27.3014 35.3303 27.2117 34.95 26.9803 34.6158C26.7608 34.2992 26.4619 34.1124 26.0729 34.0852C25.6374 34.0544 25.2715 34.2979 25.143 34.7427C24.9501 35.4104 25.0155 36.0612 25.3545 36.6729C25.5022 36.9395 25.7211 37.1362 26.0143 37.2397C26.5888 37.4419 27.0982 37.1801 27.2479 36.5918C27.303 36.3746 27.319 36.1474 27.353 35.925Z" fill="white"/>
<path id="Vector_6" fill-rule="evenodd" clip-rule="evenodd" d="M14.0654 35.6094C14.0536 36.0971 13.9386 36.5479 13.6374 36.9398C13.3147 37.3595 12.8712 37.5838 12.3669 37.6783C11.7706 37.7898 11.2105 37.6886 10.7315 37.2884C10.504 37.0981 10.3486 36.8542 10.246 36.5767C10.0778 36.1217 10.0358 35.6555 10.1393 35.1803C10.2499 34.6718 10.537 34.2832 10.982 34.0224C11.4966 33.7215 12.0519 33.5872 12.645 33.7224C13.4076 33.8967 13.8479 34.3937 14.0106 35.1461C14.0433 35.2979 14.0478 35.4549 14.0654 35.6094ZM13.2304 35.9311L13.2083 35.9279V35.8362C13.1958 35.3889 13.1083 34.9628 12.8414 34.5911C12.6437 34.3152 12.3791 34.1422 12.0398 34.0938C11.4867 34.015 11.1253 34.3431 11.0054 34.7888C10.8491 35.371 10.8981 35.9461 11.14 36.4982C11.2909 36.8424 11.5293 37.1106 11.8956 37.2406C12.4665 37.4435 12.9837 37.175 13.1282 36.5889C13.1814 36.3746 13.1974 36.1509 13.2304 35.9311Z" fill="white"/>
<path id="Vector_7" fill-rule="evenodd" clip-rule="evenodd" d="M27.3767 10.7481C27.7699 11.8846 28.0525 13.0448 28.1457 14.2471C28.2611 15.7389 28.2085 17.2205 27.8939 18.6877L27.8535 18.805C27.7548 18.8053 27.6542 18.7928 27.5578 18.8079C26.7429 18.9361 25.9291 19.0687 25.1149 19.2007C24.2731 19.3372 23.4308 19.4683 22.5906 19.6138C22.293 19.665 21.9245 19.6038 21.8043 20.0152L21.7466 20.0348L21.7873 17.5746L21.746 11.6385L22.1382 11.5712C22.7794 11.4665 23.4205 11.3598 24.0626 11.2575C24.8284 11.1361 25.5949 11.0176 26.3613 10.899C26.6997 10.8471 27.0384 10.7987 27.3767 10.7481Z" fill="#439934"/>
<path id="Vector_8" fill-rule="evenodd" clip-rule="evenodd" d="M20.9372 27.207C20.5236 26.8513 20.0955 26.5114 19.6991 26.1371C17.5658 24.1249 16.005 21.756 15.2363 18.9001C15.0245 18.1145 14.8836 17.3157 14.8381 16.5037C14.806 15.9353 14.7602 15.3621 14.8006 14.7965C14.9073 13.2928 15.1248 11.8035 15.5657 10.3549L15.5901 10.3212C15.633 10.3783 15.6945 10.4289 15.7163 10.4933C16.147 11.7609 16.5741 13.0297 16.9993 14.2996C18.3351 18.2891 19.6693 22.2796 21.0074 26.2685C21.0337 26.3464 21.1013 26.4101 21.15 26.4803L20.9372 27.207Z" fill="#45A538"/>
<path id="Vector_9" fill-rule="evenodd" clip-rule="evenodd" d="M27.3767 10.7482C27.0381 10.7985 26.6994 10.8472 26.3613 10.8991C25.5949 11.0176 24.8284 11.1362 24.0626 11.2576C23.4208 11.3595 22.7797 11.4662 22.1382 11.5713L21.746 11.6386L21.7428 11.3829C21.7297 11.1727 21.7079 10.9625 21.705 10.7523L21.6611 6.7298C21.6508 5.89062 21.6355 5.05144 21.6185 4.21258C21.6098 3.6912 21.5948 3.16995 21.5733 2.64894C21.5605 2.36921 21.5153 2.09077 21.4974 1.81104C21.4868 1.65019 21.5009 1.48806 21.5044 1.32657C21.7044 1.71396 21.9001 2.10423 22.1055 2.48873C22.4301 3.09656 22.9476 3.54451 23.4138 4.03315C25.2549 5.9656 26.5619 8.2111 27.3767 10.7482Z" fill="#46A037"/>
<path id="Vector_10" fill-rule="evenodd" clip-rule="evenodd" d="M21.747 20.0349L21.8046 20.0154C21.9248 19.6039 22.2933 19.6651 22.591 19.6139C23.4311 19.4684 24.2735 19.3373 25.1152 19.2008C25.9294 19.0692 26.7433 18.9365 27.5581 18.808C27.6545 18.793 27.7552 18.8054 27.8538 18.8051C27.7016 19.3486 27.5818 19.9038 27.3886 20.4322C27.1691 21.0314 26.9038 21.6165 26.6222 22.19C26.2002 23.0453 25.6783 23.8475 25.0672 24.5797C24.5974 25.1443 24.0739 25.6669 23.5493 26.1825C23.259 26.4673 22.9175 26.6996 22.599 26.956L22.5163 26.8996L22.2193 26.6458L21.912 25.9716C21.702 25.1855 21.5875 24.3769 21.5707 23.5634L21.5765 23.4262L21.6185 22.8322C21.6323 22.6293 21.6508 22.4268 21.6595 22.224C21.6903 21.4947 21.7178 20.7648 21.747 20.0349Z" fill="#409433"/>
<path id="Vector_11" fill-rule="evenodd" clip-rule="evenodd" d="M21.7469 20.0348C21.7181 20.7647 21.6905 21.4949 21.6594 22.2248C21.6508 22.428 21.6325 22.6305 21.6184 22.833L21.4313 22.9038C21.0154 21.6795 20.5991 20.468 20.1922 19.2536C19.519 17.2442 18.8541 15.232 18.1819 13.222C17.6391 11.5998 17.0924 9.97893 16.542 8.35932C16.516 8.2837 16.4423 8.2241 16.3911 8.15714L17.5895 5.95361C17.6308 6.02507 17.6849 6.09203 17.7109 6.16894C18.2652 7.80948 18.8186 9.45035 19.3671 11.0928C20.081 13.23 20.7901 15.3682 21.5034 17.5057C21.5319 17.5909 21.5787 17.6697 21.6235 17.7655L21.7876 17.5746L21.7469 20.0348Z" fill="#4FAA41"/>
<path id="Vector_12" fill-rule="evenodd" clip-rule="evenodd" d="M16.3908 8.15729C16.4424 8.22426 16.5161 8.28385 16.5417 8.35947C17.0922 9.97907 17.6389 11.6 18.1817 13.2222C18.8539 15.2321 19.5188 17.2444 20.192 19.2537C20.5989 20.4681 21.0151 21.6793 21.431 22.9039L21.6182 22.8331L21.5762 23.4272L21.538 23.564C21.473 24.2141 21.4182 24.8655 21.3387 25.5144C21.299 25.8396 21.2141 26.1588 21.1497 26.4805C21.1013 26.4103 21.0334 26.3465 21.0071 26.2687C19.6687 22.2798 18.3348 18.2893 16.999 14.2997C16.574 13.0301 16.1463 11.7613 15.716 10.4935C15.6942 10.4291 15.6327 10.3784 15.5898 10.3214L16.3908 8.15729Z" fill="#4AA73C"/>
<path id="Vector_13" fill-rule="evenodd" clip-rule="evenodd" d="M21.7873 17.5746L21.6232 17.7655C21.5784 17.6697 21.5316 17.5909 21.5031 17.5057C20.7898 15.3682 20.0807 13.23 19.3668 11.0928C18.8176 9.45055 18.2655 7.80926 17.7106 6.16893C17.6846 6.09203 17.6305 6.02506 17.5891 5.95361L19.0711 4.00418C19.1179 4.06634 19.1845 4.12177 19.2085 4.19195C19.62 5.39672 20.0275 6.60246 20.4332 7.80916C20.8119 8.93639 21.1849 10.0649 21.5681 11.1902C21.5937 11.2655 21.6831 11.3187 21.7427 11.3828L21.7459 11.6385L21.7873 17.5746Z" fill="#57AE47"/>
<path id="Vector_14" fill-rule="evenodd" clip-rule="evenodd" d="M21.7427 11.3827C21.6828 11.319 21.5937 11.2658 21.5681 11.1902C21.1852 10.0649 20.8119 8.93634 20.4332 7.80911C20.0278 6.6024 19.6196 5.39666 19.2085 4.1919C19.1845 4.12172 19.1179 4.06629 19.0711 4.00413C19.553 3.53215 20.0198 3.04319 20.5213 2.593C20.967 2.19312 21.3252 1.7644 21.3419 1.13221L21.3771 1.00629L21.504 1.32607C21.5008 1.48756 21.4864 1.64969 21.497 1.81054C21.5152 2.09026 21.5604 2.36871 21.5729 2.64844C21.5963 3.16912 21.6075 3.69076 21.6181 4.21208C21.6351 5.05094 21.6505 5.89012 21.6607 6.72929L21.7046 10.7518C21.7078 10.9624 21.7299 11.1725 21.7427 11.3827Z" fill="#60B24F"/>
<path id="Vector_15" fill-rule="evenodd" clip-rule="evenodd" d="M21.15 26.4801C21.2144 26.1584 21.2993 25.8392 21.339 25.514C21.4185 24.8655 21.4733 24.2137 21.5383 23.5636L21.5547 23.561L21.5707 23.5639C21.5874 24.3775 21.702 25.186 21.912 25.9722C21.8687 26.0292 21.8081 26.0795 21.7851 26.1436C21.6072 26.6454 21.4393 27.1513 21.2605 27.6528C21.2362 27.7214 21.1676 27.7749 21.1199 27.8348L20.9369 27.2068L21.15 26.4801Z" fill="#A9AA88"/>
<path id="Vector_16" fill-rule="evenodd" clip-rule="evenodd" d="M21.1199 27.8352C21.1676 27.7749 21.2362 27.7217 21.2605 27.6532C21.4393 27.1517 21.6072 26.6458 21.7851 26.144C21.8078 26.0799 21.8687 26.0296 21.9119 25.9726L22.2192 26.6467C22.1587 26.7326 22.0747 26.8105 22.0411 26.9063L21.4528 28.634C21.4284 28.7035 21.3461 28.7522 21.2903 28.8108L21.1199 27.8352Z" fill="#B6B598"/>
<path id="Vector_17" fill-rule="evenodd" clip-rule="evenodd" d="M21.2903 28.8104C21.3458 28.7518 21.4284 28.7031 21.4528 28.6335L22.0411 26.9058C22.0744 26.81 22.1587 26.7322 22.2192 26.6463L22.5166 26.8998C22.373 27.0417 22.2933 27.2058 22.3413 27.4131L22.251 27.7088C22.2099 27.7594 22.1503 27.8037 22.1302 27.8617C21.9248 28.4499 21.729 29.0414 21.522 29.6294C21.4957 29.7037 21.423 29.7624 21.3721 29.8284L21.2903 28.8104Z" fill="#C2C1A7"/>
<path id="Vector_18" fill-rule="evenodd" clip-rule="evenodd" d="M21.3717 29.8281C21.423 29.7621 21.4957 29.7035 21.5217 29.6292C21.7287 29.0412 21.9248 28.4497 22.1298 27.8614C22.15 27.8034 22.2096 27.7595 22.2506 27.7086L22.126 29.0659C22.0927 29.1043 22.0446 29.1379 22.0286 29.1825L21.614 30.3706C21.5848 30.4517 21.5291 30.5241 21.4855 30.6C21.4467 30.5494 21.3775 30.5004 21.3743 30.4478C21.3621 30.2421 21.3708 30.0348 21.3717 29.8281Z" fill="#CECDB7"/>
<path id="Vector_19" fill-rule="evenodd" clip-rule="evenodd" d="M21.4858 30.6003C21.5294 30.5244 21.5851 30.452 21.6143 30.3709L22.0289 29.1828C22.0449 29.1379 22.0933 29.1046 22.1263 29.0662L22.1295 29.9569L21.8312 30.7218L21.4858 30.6003Z" fill="#DBDAC7"/>
<path id="Vector_20" fill-rule="evenodd" clip-rule="evenodd" d="M21.8312 30.7218L22.1295 29.957L22.191 30.8619L21.8312 30.7218Z" fill="#EBE9DC"/>
<path id="Vector_21" fill-rule="evenodd" clip-rule="evenodd" d="M22.341 27.4131C22.2933 27.2061 22.3728 27.042 22.5163 26.8997L22.599 26.9561L22.341 27.4131Z" fill="#CECDB7"/>
<path id="Vector_22" fill-rule="evenodd" clip-rule="evenodd" d="M21.5706 23.5641L21.5546 23.5612L21.5383 23.5638L21.5764 23.4269L21.5706 23.5641Z" fill="#4FAA41"/>
</g>
</svg>
