<svg width="61" height="42" viewBox="0 0 61 42" fill="none" xmlns="http://www.w3.org/2000/svg">
<g id="logos:mysql" clip-path="url(#clip0_5_52)">
<path id="Vector" d="M17.9118 27.0638L19.7416 32.9969C20.1528 34.344 20.3242 35.2844 20.2555 35.8204C21.2563 33.1419 21.9556 30.223 22.3534 27.0638H24.5537C23.6076 32.2071 22.3598 35.9446 20.8109 38.2761C19.604 40.0729 18.282 40.9712 16.8423 40.9712C16.4585 40.9712 15.9852 40.8553 15.4237 40.6252V39.3854C15.698 39.4256 16.0199 39.4471 16.3901 39.4471C17.0617 39.4471 17.6031 39.261 18.0149 38.8898C18.508 38.4375 18.7548 37.9291 18.7548 37.3656C18.7548 36.9809 18.5623 36.1913 18.1791 34.9968L15.6295 27.0638H17.9118ZM3.90705 23.4171L7.25867 33.6359H7.27936L10.6516 23.4171H13.4067C14.01 28.4849 14.3663 33.1218 14.4757 37.3248H12.1529C12.0711 33.3959 11.8447 29.7013 11.4745 26.2406H11.4543L7.91711 37.3248H6.14816L2.63237 26.2406H2.61168C2.35084 29.5642 2.18667 33.2587 2.11822 37.3248H0C0.136887 32.3797 0.479458 27.7442 1.02771 23.4171H3.90705Z" fill="#00758F"/>
<path id="Vector_2" d="M41.454 23.2107C45.0593 23.2107 46.862 25.5124 46.862 30.1136C46.862 32.6139 46.3198 34.5025 45.2366 35.7784C45.0414 36.0116 44.8256 36.213 44.5984 36.3996L47.1497 37.6602L47.1473 37.6601L46.2414 39.2233L42.9188 37.286C42.3681 37.449 41.7621 37.5305 41.1018 37.5305C39.3315 37.5305 38.0092 37.0149 37.135 35.9851C36.1754 34.8459 35.6958 33.0525 35.6958 30.6079C35.6958 28.1217 36.237 26.2402 37.3205 24.9627C38.3075 23.7941 39.6855 23.2107 41.454 23.2107ZM30.4136 23.2309C31.7022 23.2309 32.8738 23.5755 33.9292 24.2621L33.3932 25.4558C32.4901 25.0722 31.5997 24.8796 30.7217 24.8796C30.0093 24.8796 29.4604 25.0509 29.0777 25.3957C28.6929 25.7375 28.4549 26.1772 28.4549 26.7133C28.4549 27.5371 29.0422 28.2515 30.1266 28.8551C30.4818 29.0491 30.8358 29.2454 31.1886 29.444L31.2695 29.4895L31.3101 29.5123L31.3911 29.5577L31.4316 29.5805L31.5125 29.6261C32.3333 30.0886 33.1057 30.53 33.1057 30.53C34.19 31.2991 34.7305 32.1191 34.7305 33.4698C34.7305 34.6493 34.298 35.6175 33.4357 36.3752C32.5729 37.1294 31.4137 37.5076 29.962 37.5076C28.6043 37.5076 27.2885 37.0723 26.0139 36.209L26.6102 35.0143C27.707 35.5637 28.6996 35.8381 29.5909 35.8381C30.4268 35.8381 31.0811 35.6516 31.5545 35.2833C32.0269 34.9123 32.3099 34.3949 32.3099 33.7388C32.3099 32.913 31.7351 32.207 30.6806 31.6149C30.3505 31.4326 30.0214 31.2486 29.6933 31.0629L29.6125 31.0172C29.4641 30.9334 29.3146 30.8485 29.1682 30.7655L29.0889 30.7203C28.3768 30.3156 27.7611 29.962 27.7611 29.962C26.707 29.1914 26.1784 28.3647 26.1784 27.0024C26.1784 25.8758 26.5725 24.9651 27.3598 24.2724C28.1489 23.5781 29.1669 23.2309 30.4136 23.2309ZM51.099 23.4171V35.614H55.4782V37.3248H48.878V23.4171H51.099ZM57.9116 35.6193V35.9084H57.4301V37.3233H57.0621V35.9084H56.5619V35.6193H57.9117H57.9116ZM58.8007 35.6193L59.263 36.7808L59.6876 35.6193H60.2094V37.3233H59.8625V36.0265L59.3791 37.3233H59.129L58.6448 36.0265H58.6263V37.3233H58.298V35.6193H58.8008H58.8007ZM41.2272 24.9211C39.1027 24.9211 38.0398 26.6733 38.0398 30.1753C38.0398 32.1813 38.3214 33.6359 38.8837 34.5426C39.4044 35.3817 40.22 35.8004 41.3305 35.8004C43.4551 35.8004 44.5178 34.0346 44.5178 30.5046C44.5178 28.5266 44.2362 27.0845 43.6746 26.1773C43.1533 25.3401 42.3381 24.9211 41.2274 24.9211H41.2272Z" fill="#F29111"/>
<path id="Vector_3" d="M35.6587 0.861704C36.3634 -0.868861 38.8278 0.441696 39.7841 1.04621C40.0185 1.19745 40.2873 1.51698 40.556 1.63509C40.9753 1.65154 41.3942 1.68433 41.8141 1.70184C42.6018 1.88681 43.3396 2.03794 43.9603 2.3912C46.8448 4.08874 48.7226 5.8186 50.4507 8.67592C50.82 9.28114 51.0045 9.93606 51.3061 10.591C51.7248 11.5672 52.1952 12.592 52.6811 13.5151C52.8987 13.9527 53.067 14.4393 53.3691 14.8089C53.487 14.9779 53.8221 15.0278 54.0224 15.1287C54.576 15.4151 55.2468 15.6325 55.7676 15.9686C56.74 16.5745 57.6802 17.2966 58.5349 18.0357C58.8535 18.3211 59.0706 18.725 59.3741 19.0268V19.1791C59.1047 19.2617 58.8362 19.3463 58.5675 19.4141C57.9806 19.5648 57.4606 19.5307 56.8912 19.6815C56.5394 19.7835 56.1025 19.918 55.7334 19.9522L55.7676 19.9865C55.9846 20.6064 57.1592 21.1106 57.6964 21.4814C58.3489 21.9519 58.9535 22.5226 59.4401 23.178C59.6082 23.3452 59.7762 23.4974 59.9434 23.6641C60.0603 23.8331 60.0933 24.0517 60.2116 24.2024V24.2534C60.0806 24.2072 59.9864 24.119 59.8971 24.0269L59.8438 23.9713C59.7906 23.9161 59.7368 23.8618 59.6755 23.817C59.3053 23.5644 58.9377 23.2621 58.5675 23.0272C57.931 22.6236 57.1929 22.3894 56.5394 21.9843C56.1699 21.7492 55.8176 21.4814 55.4654 21.2122C55.1461 20.9764 54.7945 20.5235 54.5939 20.1874C54.4757 20.0017 54.4595 19.7835 54.3245 19.6491C54.3486 19.4248 54.5543 19.3582 54.7618 19.3034L54.8096 19.2908C54.8812 19.2723 54.9513 19.2537 55.0124 19.2291C55.8843 18.8592 56.9238 18.725 58.2661 18.7586C58.2155 18.4218 57.3768 18.0021 57.109 17.8005C56.5716 17.4134 56.0025 17.0095 55.4324 16.6571C55.1303 16.4726 54.6097 16.338 54.275 16.1872C53.8221 16.0022 52.8155 15.8174 52.5646 15.465C52.1383 14.9096 51.832 14.2472 51.5347 13.5781L51.4538 13.3954C51.4269 13.3346 51.3998 13.2737 51.3727 13.2129C51.0213 12.4071 50.5848 11.567 50.2326 10.7419C50.0484 10.3394 49.9638 9.98613 49.7622 9.60008C48.5383 7.23116 46.7269 5.24782 44.5307 3.853C43.809 3.39915 43.0042 2.97914 42.1159 2.69369C41.6124 2.54174 41.0082 2.62576 40.4718 2.50918H40.1188C39.8175 2.42434 39.5659 2.10516 39.3309 1.93687C38.8116 1.58456 38.2916 1.34799 37.6707 1.09662C37.4531 0.995792 36.8318 0.760991 36.615 0.945847C36.4807 0.979574 36.4126 1.03022 36.3795 1.1649C36.246 1.36585 36.3634 1.66858 36.4466 1.85391C36.6985 2.39096 37.0503 2.71014 37.3697 3.16399C37.6539 3.56649 38.0068 4.02034 38.2082 4.45798C38.6429 5.39871 38.8453 6.44097 39.2481 7.38158C39.3974 7.73531 39.6337 8.13781 39.8511 8.45687C40.0354 8.71012 40.3704 8.89321 40.4718 9.2138C40.6739 9.5499 40.1693 10.6589 40.0526 11.0111C39.6157 12.3892 39.7004 14.3049 40.2035 15.4995L40.2303 15.5625L40.2571 15.6263C40.4408 16.0638 40.6374 16.5349 41.1258 16.6573C41.1594 16.6239 41.1258 16.6414 41.1925 16.6239C41.3107 15.6992 41.3439 14.8088 41.6629 14.0854C41.8472 13.6331 42.2151 13.3133 42.4674 12.944C42.6356 13.0446 42.6356 13.348 42.7357 13.5487C42.954 14.0693 43.1884 14.6401 43.4575 15.1622C44.0097 16.2375 44.6311 17.28 45.3352 18.2206C45.571 18.5566 45.9056 18.9264 46.2073 19.229C46.3417 19.3462 46.4923 19.4139 46.5933 19.5646H46.6262V19.6154C46.1231 19.4301 45.8042 18.91 45.4029 18.6063C44.6475 18.0355 43.7428 17.1783 43.222 16.3558C43.0042 15.8836 42.7688 15.4311 42.5341 14.9612V14.9273C42.4338 15.0615 42.4674 15.1947 42.4172 15.3978C42.1994 16.2375 42.3671 17.1954 41.6124 17.4974C40.757 17.8511 40.1189 16.9266 39.8511 16.5065C38.9955 15.112 38.7611 12.7595 39.3645 10.8606C39.4986 10.4402 39.5168 9.93606 39.7508 9.60043C39.7002 9.297 39.4662 9.21404 39.3309 9.02812C39.0961 8.71036 38.8951 8.34018 38.7113 7.98727C38.3583 7.29791 38.1071 6.47423 37.8391 5.73493C37.7213 5.43302 37.6875 5.12995 37.57 4.84414C37.3696 4.40792 37.0002 3.97028 36.7153 3.58435C36.3295 3.02967 35.2057 1.95462 35.6587 0.861704ZM41.1591 4.15396C41.2039 4.19885 41.258 4.2381 41.314 4.27677L41.3815 4.32307C41.4714 4.38535 41.5586 4.45093 41.612 4.54024C41.6966 4.65846 41.7124 4.77516 41.8138 4.89362C41.8138 5.29753 41.6966 5.56605 41.4601 5.7334C41.4601 5.7334 41.444 5.75103 41.4274 5.76748C41.2934 5.49825 41.1759 5.23042 41.0409 4.96143C40.8746 4.72662 40.6395 4.54036 40.504 4.27207H40.4715V4.23834C40.6739 4.18839 40.8746 4.15396 41.1591 4.15396Z" fill="#00758F"/>
</g>
<defs>
<clipPath id="clip0_5_52">
<rect width="60.2116" height="41.0137" fill="white"/>
</clipPath>
</defs>
</svg>
