<svg width="30" height="42" viewBox="0 0 30 42" fill="none" xmlns="http://www.w3.org/2000/svg">
<g id="logos:html-5" clip-path="url(#clip0_5_7)">
<path id="Vector" d="M29.3271 8.121L26.66 37.9995L14.6712 41.3232L2.71543 38.0041L0.0510864 8.121H29.3271Z" fill="#E44D26"/>
<path id="Vector_2" d="M14.6891 38.7827L24.3767 36.097L26.6558 10.5644H14.6891V38.7827Z" fill="#F16529"/>
<path id="Vector_3" d="M9.50432 17.8945H14.6891V14.2295H5.4989L5.58658 15.2127L6.48743 25.3126H14.6891V21.6476H9.8393L9.50432 17.8945ZM10.3303 27.1452H6.65119L7.16462 32.8999L14.6722 34.9839L14.6891 34.9793V31.1661L14.673 31.1704L10.5913 30.0682L10.3303 27.1452Z" fill="#EBEBEB"/>
<path id="Vector_4" d="M2.77484 3.05176e-05H4.63737V1.84018H6.34119V3.05176e-05H8.20384V5.57247H6.34131V3.7065H4.63749V5.57247H2.77496L2.77484 3.05176e-05ZM10.653 1.84799H9.01357V3.05176e-05H14.1564V1.84799H12.5159V5.57247H10.6534V1.84799H10.653ZM14.9725 3.05176e-05H16.9146L18.1092 1.95804L19.3027 3.05176e-05H21.2456V5.57247H19.3906V2.81047L18.1092 4.79177H18.0771L16.7949 2.81047V5.57247H14.9725V3.05176e-05ZM22.1725 3.05176e-05H24.0356V3.7306H26.6548V5.57247H22.1724V3.05176e-05H22.1725Z" fill="white"/>
<path id="Vector_5" d="M14.6764 25.3126H19.1896L18.764 30.0659L14.6763 31.1692V34.9822L22.1899 32.8999L22.245 32.2807L23.1064 22.6318L23.1958 21.6476H14.6764V25.3126ZM14.6764 17.8856V17.8945H23.5293L23.6027 17.0708L23.7698 15.2127L23.8574 14.2295H14.6764V17.8856Z" fill="white"/>
</g>
<defs>
<clipPath id="clip0_5_7">
<rect width="29.3782" height="41.4278" fill="white"/>
</clipPath>
</defs>
</svg>
