<svg width="30" height="42" viewBox="0 0 30 42" fill="none" xmlns="http://www.w3.org/2000/svg">
<g id="logos:css-3" clip-path="url(#clip0_5_13)">
<path id="Vector" d="M14.8041 41.3232L2.84837 38.0041L0.184021 8.12103H29.4601L26.793 37.9996L14.8041 41.3232Z" fill="#264DE4"/>
<path id="Vector_2" d="M24.5096 36.097L26.7887 10.5644H14.822V38.7827L24.5096 36.097Z" fill="#2965F1"/>
<path id="Vector_3" d="M6.29193 21.6476L6.62037 25.3127H14.822V21.6476H6.29193ZM5.63184 14.2295L5.96498 17.8946H14.822V14.2295H5.63184ZM14.822 31.1662L14.806 31.1704L10.7242 30.0683L10.4633 27.1452H6.78413L7.29756 32.8999L14.8052 34.9839L14.822 34.9794V31.1662Z" fill="#EBEBEB"/>
<path id="Vector_4" d="M7.07397 6.10352e-05H11.5128V1.85639H8.93031V3.71273H11.5131V5.56895H7.07397V6.10352e-05ZM12.4007 6.10352e-05H16.8397V1.61425H14.2571V1.93707H16.8397V5.64974H12.4008V3.95464H14.9835V3.63182H12.4006L12.4007 6.10352e-05ZM17.7276 6.10352e-05H22.1666V1.61425H19.5839V1.93707H22.1666V5.64974H17.7276V3.95464H20.3102V3.63182H17.7277V6.10352e-05H17.7276Z" fill="white"/>
<path id="Vector_5" d="M23.3287 21.6476L23.9903 14.2295H14.8094V17.8946H19.9737L19.6403 21.6476H14.8094V25.3127H19.3225L18.897 30.066L14.8093 31.1693V34.9822L22.3228 32.8999L22.3779 32.2807L23.2393 22.6318L23.3287 21.6476Z" fill="white"/>
</g>
<defs>
<clipPath id="clip0_5_13">
<rect width="29.3782" height="41.4278" fill="white" transform="translate(0.132935 3.05176e-05)"/>
</clipPath>
</defs>
</svg>
