<svg width="42" height="42" viewBox="0 0 42 42" fill="none" xmlns="http://www.w3.org/2000/svg">
<g id="mdi:github">
<path id="Vector" d="M20.551 3.42508C18.302 3.42508 16.075 3.86805 13.9972 4.7287C11.9194 5.58936 10.0315 6.85083 8.44119 8.44111C5.22948 11.6528 3.42516 16.0088 3.42516 20.5509C3.42516 28.1205 8.34027 34.5427 15.1392 36.8204C15.9955 36.9574 16.2695 36.4265 16.2695 35.9641V33.0698C11.5257 34.0974 10.5152 30.775 10.5152 30.775C9.72746 28.7884 8.61428 28.2575 8.61428 28.2575C7.05583 27.1957 8.73416 27.2299 8.73416 27.2299C10.4467 27.3498 11.3544 28.9939 11.3544 28.9939C12.8444 31.597 15.3618 30.8264 16.338 30.4153C16.4921 29.3022 16.9374 28.5486 17.4169 28.1205C13.615 27.6923 9.6247 26.2195 9.6247 19.6946C9.6247 17.7936 10.2755 16.2694 11.3887 15.0535C11.2174 14.6254 10.618 12.8443 11.5599 10.5323C11.5599 10.5323 12.9985 10.0699 16.2695 12.2791C17.6224 11.9023 19.0953 11.714 20.551 11.714C22.0067 11.714 23.4795 11.9023 24.8324 12.2791C28.1034 10.0699 29.542 10.5323 29.542 10.5323C30.4839 12.8443 29.8845 14.6254 29.7133 15.0535C30.8264 16.2694 31.4772 17.7936 31.4772 19.6946C31.4772 26.2366 27.4698 27.6752 23.6507 28.1034C24.2673 28.6343 24.8324 29.6789 24.8324 31.2716V35.9641C24.8324 36.4265 25.1064 36.9745 25.9798 36.8204C32.7788 34.5255 37.6768 28.1205 37.6768 20.5509C37.6768 18.3019 37.2338 16.0749 36.3731 13.9971C35.5125 11.9193 34.251 10.0314 32.6607 8.44111C31.0704 6.85083 29.1825 5.58936 27.1047 4.7287C25.0269 3.86805 22.8 3.42508 20.551 3.42508Z" fill="#A655BB"/>
</g>
</svg>
