<svg width="40" height="40" viewBox="0 0 40 40" fill="none" xmlns="http://www.w3.org/2000/svg">
<g id="vscode-icons:file-type-node">
<path id="Vector" d="M19.5707 36.6951C19.1086 36.6952 18.6547 36.5737 18.2545 36.3428L14.0664 33.8634C13.4414 33.5136 13.7459 33.3901 13.9527 33.3179C14.6174 33.1125 15.2539 32.8249 15.8473 32.4617C15.897 32.4387 15.9517 32.4288 16.0063 32.4328C16.0609 32.4369 16.1135 32.4548 16.1593 32.4849L19.3774 34.3967C19.4373 34.4284 19.5041 34.445 19.5719 34.445C19.6397 34.445 19.7065 34.4284 19.7664 34.3967L32.3161 27.1531C32.3748 27.1179 32.4234 27.0681 32.4571 27.0085C32.4907 26.9489 32.5083 26.8815 32.5081 26.8131V12.3234C32.5082 12.2539 32.4903 12.1855 32.4562 12.1248C32.4222 12.0642 32.3731 12.0134 32.3137 11.9772L19.7639 4.73975C19.7048 4.70642 19.638 4.68891 19.5701 4.68891C19.5021 4.68891 19.4354 4.70642 19.3762 4.73975L6.8338 11.9797C6.77398 12.0151 6.7243 12.0653 6.68959 12.1255C6.65487 12.1857 6.63629 12.2539 6.63565 12.3234V26.807C6.63582 26.8753 6.65415 26.9423 6.68875 27.0012C6.72336 27.0601 6.773 27.1087 6.83258 27.1421L10.2746 29.1285C12.1399 30.0606 13.2824 28.9622 13.2824 27.8589V13.5588C13.2824 13.4615 13.321 13.3681 13.3898 13.2993C13.4587 13.2305 13.552 13.1919 13.6493 13.1919H15.2394C15.3368 13.1919 15.4301 13.2305 15.4989 13.2993C15.5677 13.3681 15.6064 13.4615 15.6064 13.5588V27.8601C15.6064 30.3493 14.2511 31.7743 11.8904 31.7743C10.872 31.792 9.86948 31.5196 9.00004 30.989L5.70115 29.0967C5.30067 28.8635 4.96837 28.5293 4.73742 28.1275C4.50648 27.7257 4.38497 27.2704 4.38502 26.807V12.3234C4.38383 11.8592 4.50483 11.4029 4.73585 11.0004C4.96688 10.5978 5.2998 10.2631 5.70115 10.03L18.2521 2.7839C18.6564 2.56271 19.1098 2.44678 19.5707 2.44678C20.0315 2.44678 20.485 2.56271 20.8892 2.7839L33.439 10.03C33.8394 10.2627 34.1718 10.5964 34.4029 10.9978C34.6341 11.3991 34.756 11.8541 34.7563 12.3173V26.807C34.7556 27.2704 34.6337 27.7256 34.4026 28.1273C34.1715 28.529 33.8393 28.8632 33.439 29.0967L20.8892 36.3428C20.4883 36.5741 20.0335 36.6956 19.5707 36.6951Z" fill="#83CD29"/>
<path id="Vector_2" d="M17.1904 21.9596C17.1904 21.8622 17.2291 21.7689 17.2979 21.7001C17.3667 21.6313 17.4601 21.5926 17.5574 21.5926H19.1805C19.2673 21.5929 19.3511 21.6239 19.4171 21.6801C19.4832 21.7363 19.5272 21.8141 19.5414 21.8996C19.786 23.5521 20.5199 24.3851 23.8384 24.3851C26.4816 24.3851 27.6082 23.787 27.6082 22.384C27.6082 21.5755 27.2889 20.9749 23.1803 20.5725C19.7456 20.2324 17.6222 19.4716 17.6222 16.7268C17.6222 14.1949 19.7566 12.6843 23.3344 12.6843C27.355 12.6843 29.3451 14.0799 29.597 17.0742C29.6009 17.1242 29.5945 17.1745 29.5781 17.2219C29.5618 17.2693 29.5359 17.3128 29.5021 17.3499C29.4683 17.3869 29.4273 17.4166 29.3815 17.4371C29.3358 17.4577 29.2863 17.4686 29.2362 17.4693H27.6021C27.5201 17.4682 27.4408 17.4396 27.377 17.3882C27.3131 17.3367 27.2684 17.2654 27.2498 17.1855C26.8596 15.4474 25.9043 14.8921 23.3356 14.8921C20.449 14.8921 20.1138 15.8975 20.1138 16.651C20.1138 17.5635 20.5101 17.8301 24.4071 18.3451C28.2638 18.8552 30.0961 19.5768 30.0961 22.2874C30.0961 25.0224 27.8161 26.588 23.8396 26.588C18.3414 26.5954 17.1904 24.0744 17.1904 21.9596Z" fill="#83CD29"/>
</g>
</svg>
