<svg width="34" height="35" viewBox="0 0 34 35" fill="none" xmlns="http://www.w3.org/2000/svg">
<g id="vscode-icons:file-type-js-official">
<path id="Vector" d="M2.37427 2.95529H31.8916V32.4726H2.37427V2.95529Z" fill="#F5DE19"/>
<path id="Vector_2" d="M22.2025 26.0157C22.454 26.5265 22.8448 26.9559 23.3297 27.2544C23.8146 27.5528 24.374 27.7081 24.9434 27.7024C26.0925 27.7024 26.8273 27.1279 26.8273 26.3319C26.8273 25.3832 26.0725 25.0437 24.8074 24.4903L24.1138 24.193C22.1108 23.3402 20.7825 22.2723 20.7825 20.0142C20.7825 17.9343 22.3638 16.3498 24.8443 16.3498C25.6473 16.2918 26.4496 16.4716 27.1511 16.8665C27.8526 17.2615 28.4223 17.8543 28.7891 18.571L26.6206 19.9573C26.4794 19.6019 26.2335 19.2979 25.9155 19.0855C25.5975 18.8732 25.2225 18.7625 24.8401 18.7681C24.6733 18.7514 24.5048 18.7697 24.3455 18.8217C24.1861 18.8737 24.0393 18.9583 23.9144 19.0702C23.7895 19.182 23.6894 19.3187 23.6202 19.4714C23.5511 19.6242 23.5145 19.7896 23.5129 19.9573C23.5129 20.789 24.0284 21.1264 25.2186 21.644L25.9122 21.9412C28.2694 22.9522 29.6019 23.9822 29.6019 26.2982C29.6019 28.7956 27.64 30.1639 25.0056 30.1639C23.9792 30.2293 22.9557 29.9963 22.0588 29.4929C21.1618 28.9895 20.4297 28.2373 19.9508 27.3271L22.2025 26.0157ZM12.4038 26.256C12.8392 27.0288 13.2356 27.6824 14.1886 27.6824C15.0994 27.6824 15.675 27.326 15.675 25.9398V16.508H18.4486V25.9767C18.4486 28.8483 16.7618 30.1555 14.3066 30.1555C13.4388 30.2029 12.5769 29.9867 11.8342 29.5351C11.0916 29.0835 10.503 28.4178 10.1458 27.6254L12.4038 26.256Z" fill="black"/>
</g>
</svg>
